<mxfile host="app.diagrams.net" modified="2024-05-28T19:03:40.181Z" agent="Mozilla/5.0 (Windows NT 10.0; Win64; x64; rv:126.0) Gecko/20100101 Firefox/126.0" etag="riX8ghQWZ9uHSbcYBmdB" version="24.4.9" type="device">
  <diagram name="Page-1" id="Yb0u_nq1Js9z4eb5nLN6">
    <mxGraphModel dx="2074" dy="1106" grid="1" gridSize="10" guides="1" tooltips="1" connect="1" arrows="1" fold="1" page="1" pageScale="1" pageWidth="512" pageHeight="512" math="0" shadow="0">
      <root>
        <mxCell id="0" />
        <mxCell id="1" parent="0" />
        <mxCell id="-3uUEbbPzYNeIi15xnlg-1" value="" style="ellipse;whiteSpace=wrap;html=1;fillColor=none;strokeColor=#0000FA;strokeWidth=38;" vertex="1" parent="1">
          <mxGeometry x="70" y="218" width="890" height="550" as="geometry" />
        </mxCell>
        <mxCell id="-3uUEbbPzYNeIi15xnlg-23" value="&lt;font style=&quot;font-size: 400px;&quot; color=&quot;#ff0404&quot;&gt;S&lt;/font&gt;&lt;font style=&quot;font-size: 340px;&quot; color=&quot;#ff0404&quot;&gt;GB&lt;/font&gt;" style="text;strokeColor=none;align=center;fillColor=none;html=1;verticalAlign=middle;whiteSpace=wrap;rounded=0;fontColor=#ff0000;fontFamily=Tahoma;fontSize=400;spacingRight=0;" vertex="1" parent="1">
          <mxGeometry x="330" y="368" width="390" height="190" as="geometry" />
        </mxCell>
      </root>
    </mxGraphModel>
  </diagram>
</mxfile>
